<?xml version="1.0" encoding="UTF-8" standalone="no"?>
<!DOCTYPE svg PUBLIC "-//W3C//DTD SVG 1.1//EN"
 "http://www.w3.org/Graphics/SVG/1.1/DTD/svg11.dtd">
<!-- Generated by graphviz version 2.40.1 (20161225.0304)
 -->
<!-- Title: dependencies Pages: 1 -->
<svg width="1177pt" height="211pt"
 viewBox="0.00 0.00 1177.00 211.00" xmlns="http://www.w3.org/2000/svg" xmlns:xlink="http://www.w3.org/1999/xlink">
<g id="graph0" class="graph" transform="scale(1 1) rotate(0) translate(4 207)">
<title>dependencies</title>
<polygon fill="#ffffff" stroke="transparent" points="-4,4 -4,-207 1173,-207 1173,4 -4,4"/>
<text text-anchor="start" x="563.5091" y="-42.4" font-family="sans-serif" font-weight="bold" font-size="14.00" fill="#000000">Legend</text>
<polygon fill="#ffffb3" stroke="transparent" points="350.5,-10 350.5,-30 370.5,-30 370.5,-10 350.5,-10"/>
<text text-anchor="start" x="374.129" y="-15.4" font-family="sans-serif" font-size="14.00" fill="#000000"> &#160;Declarations</text>
<polygon fill="#8dd3c7" stroke="transparent" points="463.5,-10 463.5,-30 483.5,-30 483.5,-10 463.5,-10"/>
<text text-anchor="start" x="487.2251" y="-15.4" font-family="sans-serif" font-size="14.00" fill="#000000"> &#160;Module</text>
<polygon fill="#80b1d3" stroke="transparent" points="549.5,-10 549.5,-30 569.5,-30 569.5,-10 549.5,-10"/>
<text text-anchor="start" x="573.2812" y="-15.4" font-family="sans-serif" font-size="14.00" fill="#000000"> &#160;Bootstrap</text>
<polygon fill="#fdb462" stroke="transparent" points="646.5,-10 646.5,-30 666.5,-30 666.5,-10 646.5,-10"/>
<text text-anchor="start" x="670.1732" y="-15.4" font-family="sans-serif" font-size="14.00" fill="#000000"> &#160;Providers</text>
<polygon fill="#fb8072" stroke="transparent" points="742.5,-10 742.5,-30 762.5,-30 762.5,-10 742.5,-10"/>
<text text-anchor="start" x="766.2258" y="-15.4" font-family="sans-serif" font-size="14.00" fill="#000000"> &#160;Exports</text>
<g id="clust1" class="cluster">
<title>cluster_AppModule</title>
<polygon fill="none" stroke="#000000" stroke-dasharray="1,5" points="8,-70 8,-195 1161,-195 1161,-70 8,-70"/>
</g>
<g id="clust3" class="cluster">
<title>cluster_AppModule_imports</title>
<polygon fill="none" stroke="#000000" points="176,-78 176,-130 1153,-130 1153,-78 176,-78"/>
</g>
<g id="clust6" class="cluster">
<title>cluster_AppModule_providers</title>
<polygon fill="none" stroke="#000000" points="16,-78 16,-130 168,-130 168,-78 16,-78"/>
</g>
<!-- AuthModule -->
<g id="node1" class="node">
<title>AuthModule</title>
<polygon fill="#8dd3c7" stroke="#000000" points="1144.5482,-122 1141.5482,-126 1120.5482,-126 1117.5482,-122 1057.4518,-122 1057.4518,-86 1144.5482,-86 1144.5482,-122"/>
<text text-anchor="middle" x="1101" y="-99.8" font-family="Times,serif" font-size="14.00" fill="#000000">AuthModule</text>
</g>
<!-- AppModule -->
<g id="node10" class="node">
<title>AppModule</title>
<polygon fill="#8dd3c7" stroke="#000000" points="638.6571,-187 635.6571,-191 614.6571,-191 611.6571,-187 555.3429,-187 555.3429,-151 638.6571,-151 638.6571,-187"/>
<text text-anchor="middle" x="597" y="-164.8" font-family="Times,serif" font-size="14.00" fill="#000000">AppModule</text>
</g>
<!-- AuthModule&#45;&gt;AppModule -->
<g id="edge1" class="edge">
<title>AuthModule&#45;&gt;AppModule</title>
<path fill="none" stroke="#000000" d="M1101,-122.0109C1101,-144.4852 1101,-180 1101,-180 1101,-180 648.6732,-180 648.6732,-180"/>
<polygon fill="#000000" stroke="#000000" points="648.6733,-176.5001 638.6732,-180 648.6732,-183.5001 648.6733,-176.5001"/>
</g>
<!-- BillingModule -->
<g id="node2" class="node">
<title>BillingModule</title>
<polygon fill="#8dd3c7" stroke="#000000" points="1039.4498,-122 1036.4498,-126 1015.4498,-126 1012.4498,-122 940.5502,-122 940.5502,-86 1039.4498,-86 1039.4498,-122"/>
<text text-anchor="middle" x="990" y="-99.8" font-family="Times,serif" font-size="14.00" fill="#000000">BillingModule</text>
</g>
<!-- BillingModule&#45;&gt;AppModule -->
<g id="edge2" class="edge">
<title>BillingModule&#45;&gt;AppModule</title>
<path fill="none" stroke="#000000" d="M990,-122.1289C990,-142.5724 990,-173 990,-173 990,-173 648.6858,-173 648.6858,-173"/>
<polygon fill="#000000" stroke="#000000" points="648.6859,-169.5001 638.6858,-173 648.6858,-176.5001 648.6859,-169.5001"/>
</g>
<!-- ClientModule -->
<g id="node3" class="node">
<title>ClientModule</title>
<polygon fill="#8dd3c7" stroke="#000000" points="922.7731,-122 919.7731,-126 898.7731,-126 895.7731,-122 829.2269,-122 829.2269,-86 922.7731,-86 922.7731,-122"/>
<text text-anchor="middle" x="876" y="-99.8" font-family="Times,serif" font-size="14.00" fill="#000000">ClientModule</text>
</g>
<!-- ClientModule&#45;&gt;AppModule -->
<g id="edge3" class="edge">
<title>ClientModule&#45;&gt;AppModule</title>
<path fill="none" stroke="#000000" d="M876,-122.2667C876,-140.5552 876,-166 876,-166 876,-166 648.7691,-166 648.7691,-166"/>
<polygon fill="#000000" stroke="#000000" points="648.7692,-162.5001 638.7691,-166 648.7691,-169.5001 648.7692,-162.5001"/>
</g>
<!-- DeviceModule -->
<g id="node4" class="node">
<title>DeviceModule</title>
<polygon fill="#8dd3c7" stroke="#000000" points="811.691,-122 808.691,-126 787.691,-126 784.691,-122 712.309,-122 712.309,-86 811.691,-86 811.691,-122"/>
<text text-anchor="middle" x="762" y="-99.8" font-family="Times,serif" font-size="14.00" fill="#000000">DeviceModule</text>
</g>
<!-- DeviceModule&#45;&gt;AppModule -->
<g id="edge4" class="edge">
<title>DeviceModule&#45;&gt;AppModule</title>
<path fill="none" stroke="#000000" d="M762,-122.0091C762,-138.0494 762,-159 762,-159 762,-159 649.0634,-159 649.0634,-159"/>
<polygon fill="#000000" stroke="#000000" points="649.0634,-155.5001 639.0634,-159 649.0634,-162.5001 649.0634,-155.5001"/>
</g>
<!-- IoCtlModule -->
<g id="node5" class="node">
<title>IoCtlModule</title>
<polygon fill="#8dd3c7" stroke="#000000" points="694.3288,-122 691.3288,-126 670.3288,-126 667.3288,-122 605.6712,-122 605.6712,-86 694.3288,-86 694.3288,-122"/>
<text text-anchor="middle" x="650" y="-99.8" font-family="Times,serif" font-size="14.00" fill="#000000">IoCtlModule</text>
</g>
<!-- IoCtlModule&#45;&gt;AppModule -->
<g id="edge5" class="edge">
<title>IoCtlModule&#45;&gt;AppModule</title>
<path fill="none" stroke="#000000" d="M622.3321,-122.1061C622.3321,-122.1061 622.3321,-140.991 622.3321,-140.991"/>
<polygon fill="#000000" stroke="#000000" points="618.8321,-140.9909 622.3321,-150.991 625.8321,-140.991 618.8321,-140.9909"/>
</g>
<!-- MailModule -->
<g id="node6" class="node">
<title>MailModule</title>
<polygon fill="#8dd3c7" stroke="#000000" points="587.9902,-122 584.9902,-126 563.9902,-126 560.9902,-122 502.0098,-122 502.0098,-86 587.9902,-86 587.9902,-122"/>
<text text-anchor="middle" x="545" y="-99.8" font-family="Times,serif" font-size="14.00" fill="#000000">MailModule</text>
</g>
<!-- MailModule&#45;&gt;AppModule -->
<g id="edge6" class="edge">
<title>MailModule&#45;&gt;AppModule</title>
<path fill="none" stroke="#000000" d="M571.5835,-122.1061C571.5835,-122.1061 571.5835,-140.991 571.5835,-140.991"/>
<polygon fill="#000000" stroke="#000000" points="568.0835,-140.9909 571.5835,-150.991 575.0835,-140.991 568.0835,-140.9909"/>
</g>
<!-- PanelModule -->
<g id="node7" class="node">
<title>PanelModule</title>
<polygon fill="#8dd3c7" stroke="#000000" points="484.1529,-122 481.1529,-126 460.1529,-126 457.1529,-122 393.8471,-122 393.8471,-86 484.1529,-86 484.1529,-122"/>
<text text-anchor="middle" x="439" y="-99.8" font-family="Times,serif" font-size="14.00" fill="#000000">PanelModule</text>
</g>
<!-- PanelModule&#45;&gt;AppModule -->
<g id="edge7" class="edge">
<title>PanelModule&#45;&gt;AppModule</title>
<path fill="none" stroke="#000000" d="M439,-122.0091C439,-138.0494 439,-159 439,-159 439,-159 545.0737,-159 545.0737,-159"/>
<polygon fill="#000000" stroke="#000000" points="545.0738,-162.5001 555.0737,-159 545.0737,-155.5001 545.0738,-162.5001"/>
</g>
<!-- UserModule -->
<g id="node8" class="node">
<title>UserModule</title>
<polygon fill="#8dd3c7" stroke="#000000" points="375.9762,-122 372.9762,-126 351.9762,-126 348.9762,-122 290.0238,-122 290.0238,-86 375.9762,-86 375.9762,-122"/>
<text text-anchor="middle" x="333" y="-99.8" font-family="Times,serif" font-size="14.00" fill="#000000">UserModule</text>
</g>
<!-- UserModule&#45;&gt;AppModule -->
<g id="edge8" class="edge">
<title>UserModule&#45;&gt;AppModule</title>
<path fill="none" stroke="#000000" d="M333,-122.2667C333,-140.5552 333,-166 333,-166 333,-166 545.1684,-166 545.1684,-166"/>
<polygon fill="#000000" stroke="#000000" points="545.1685,-169.5001 555.1684,-166 545.1684,-162.5001 545.1685,-169.5001"/>
</g>
<!-- ZonaModule -->
<g id="node9" class="node">
<title>ZonaModule</title>
<polygon fill="#8dd3c7" stroke="#000000" points="272.3176,-122 269.3176,-126 248.3176,-126 245.3176,-122 183.6824,-122 183.6824,-86 272.3176,-86 272.3176,-122"/>
<text text-anchor="middle" x="228" y="-99.8" font-family="Times,serif" font-size="14.00" fill="#000000">ZonaModule</text>
</g>
<!-- ZonaModule&#45;&gt;AppModule -->
<g id="edge9" class="edge">
<title>ZonaModule&#45;&gt;AppModule</title>
<path fill="none" stroke="#000000" d="M228,-122.1289C228,-142.5724 228,-173 228,-173 228,-173 545.0303,-173 545.0303,-173"/>
<polygon fill="#000000" stroke="#000000" points="545.0303,-176.5001 555.0303,-173 545.0302,-169.5001 545.0303,-176.5001"/>
</g>
<!-- ClusterService -->
<g id="node11" class="node">
<title>ClusterService</title>
<ellipse fill="#fdb462" stroke="#000000" cx="92" cy="-104" rx="67.7702" ry="18"/>
<text text-anchor="middle" x="92" y="-99.8" font-family="Times,serif" font-size="14.00" fill="#000000">ClusterService</text>
</g>
<!-- ClusterService&#45;&gt;AppModule -->
<g id="edge10" class="edge">
<title>ClusterService&#45;&gt;AppModule</title>
<path fill="none" stroke="#000000" d="M92,-122.0109C92,-144.4852 92,-180 92,-180 92,-180 545.2441,-180 545.2441,-180"/>
<polygon fill="#000000" stroke="#000000" points="545.2441,-183.5001 555.2441,-180 545.2441,-176.5001 545.2441,-183.5001"/>
</g>
</g>
</svg>
