<?xml version="1.0" encoding="UTF-8" standalone="no"?>
<!DOCTYPE svg PUBLIC "-//W3C//DTD SVG 1.1//EN"
 "http://www.w3.org/Graphics/SVG/1.1/DTD/svg11.dtd">
<!-- Generated by graphviz version 2.40.1 (20161225.0304)
 -->
<!-- Title: dependencies Pages: 1 -->
<svg width="1590pt" height="287pt"
 viewBox="0.00 0.00 1590.00 287.00" xmlns="http://www.w3.org/2000/svg" xmlns:xlink="http://www.w3.org/1999/xlink">
<g id="graph0" class="graph" transform="scale(1 1) rotate(0) translate(4 283)">
<title>dependencies</title>
<polygon fill="#ffffff" stroke="transparent" points="-4,4 -4,-283 1586,-283 1586,4 -4,4"/>
<text text-anchor="start" x="770.0091" y="-42.4" font-family="sans-serif" font-weight="bold" font-size="14.00" fill="#000000">Legend</text>
<polygon fill="#ffffb3" stroke="transparent" points="557,-10 557,-30 577,-30 577,-10 557,-10"/>
<text text-anchor="start" x="580.629" y="-15.4" font-family="sans-serif" font-size="14.00" fill="#000000"> &#160;Declarations</text>
<polygon fill="#8dd3c7" stroke="transparent" points="670,-10 670,-30 690,-30 690,-10 670,-10"/>
<text text-anchor="start" x="693.7251" y="-15.4" font-family="sans-serif" font-size="14.00" fill="#000000"> &#160;Module</text>
<polygon fill="#80b1d3" stroke="transparent" points="756,-10 756,-30 776,-30 776,-10 756,-10"/>
<text text-anchor="start" x="779.7812" y="-15.4" font-family="sans-serif" font-size="14.00" fill="#000000"> &#160;Bootstrap</text>
<polygon fill="#fdb462" stroke="transparent" points="853,-10 853,-30 873,-30 873,-10 853,-10"/>
<text text-anchor="start" x="876.6732" y="-15.4" font-family="sans-serif" font-size="14.00" fill="#000000"> &#160;Providers</text>
<polygon fill="#fb8072" stroke="transparent" points="949,-10 949,-30 969,-30 969,-10 949,-10"/>
<text text-anchor="start" x="972.7258" y="-15.4" font-family="sans-serif" font-size="14.00" fill="#000000"> &#160;Exports</text>
<g id="clust1" class="cluster">
<title>cluster_AppModule</title>
<polygon fill="none" stroke="#000000" stroke-dasharray="1,5" points="137,-146 137,-271 1290,-271 1290,-146 137,-146"/>
</g>
<g id="clust3" class="cluster">
<title>cluster_AppModule_imports</title>
<polygon fill="none" stroke="#000000" points="305,-154 305,-206 1282,-206 1282,-154 305,-154"/>
</g>
<g id="clust6" class="cluster">
<title>cluster_AppModule_providers</title>
<polygon fill="none" stroke="#000000" points="145,-154 145,-206 297,-206 297,-154 145,-154"/>
</g>
<g id="clust7" class="cluster">
<title>cluster_AuthModule</title>
<polygon fill="none" stroke="#000000" stroke-dasharray="1,5" points="8,-70 8,-138 424,-138 424,-70 8,-70"/>
</g>
<g id="clust12" class="cluster">
<title>cluster_AuthModule_providers</title>
<polygon fill="none" stroke="#000000" points="16,-78 16,-130 416,-130 416,-78 16,-78"/>
</g>
<g id="clust13" class="cluster">
<title>cluster_BillingModule</title>
<polygon fill="none" stroke="#000000" stroke-dasharray="1,5" points="432,-70 432,-138 598,-138 598,-70 432,-70"/>
</g>
<g id="clust18" class="cluster">
<title>cluster_BillingModule_providers</title>
<polygon fill="none" stroke="#000000" points="440,-78 440,-130 590,-130 590,-78 440,-78"/>
</g>
<g id="clust19" class="cluster">
<title>cluster_ClientModule</title>
<polygon fill="none" stroke="#000000" stroke-dasharray="1,5" points="606,-70 606,-138 766,-138 766,-70 606,-70"/>
</g>
<g id="clust24" class="cluster">
<title>cluster_ClientModule_providers</title>
<polygon fill="none" stroke="#000000" points="614,-78 614,-130 758,-130 758,-78 614,-78"/>
</g>
<g id="clust25" class="cluster">
<title>cluster_DeviceModule</title>
<polygon fill="none" stroke="#000000" stroke-dasharray="1,5" points="774,-70 774,-138 940,-138 940,-70 774,-70"/>
</g>
<g id="clust30" class="cluster">
<title>cluster_DeviceModule_providers</title>
<polygon fill="none" stroke="#000000" points="782,-78 782,-130 932,-130 932,-78 782,-78"/>
</g>
<g id="clust31" class="cluster">
<title>cluster_IoCtlModule</title>
<polygon fill="none" stroke="#000000" stroke-dasharray="1,5" points="948,-70 948,-138 1096,-138 1096,-70 948,-70"/>
</g>
<g id="clust36" class="cluster">
<title>cluster_IoCtlModule_providers</title>
<polygon fill="none" stroke="#000000" points="956,-78 956,-130 1088,-130 1088,-78 956,-78"/>
</g>
<g id="clust37" class="cluster">
<title>cluster_MailModule</title>
<polygon fill="none" stroke="#000000" stroke-dasharray="1,5" points="1104,-70 1104,-138 1252,-138 1252,-70 1104,-70"/>
</g>
<g id="clust42" class="cluster">
<title>cluster_MailModule_providers</title>
<polygon fill="none" stroke="#000000" points="1112,-78 1112,-130 1244,-130 1244,-78 1112,-78"/>
</g>
<g id="clust43" class="cluster">
<title>cluster_PanelModule</title>
<polygon fill="none" stroke="#000000" stroke-dasharray="1,5" points="1260,-70 1260,-138 1414,-138 1414,-70 1260,-70"/>
</g>
<g id="clust48" class="cluster">
<title>cluster_PanelModule_providers</title>
<polygon fill="none" stroke="#000000" points="1268,-78 1268,-130 1406,-130 1406,-78 1268,-78"/>
</g>
<g id="clust55" class="cluster">
<title>cluster_ZonaModule</title>
<polygon fill="none" stroke="#000000" stroke-dasharray="1,5" points="1422,-70 1422,-138 1574,-138 1574,-70 1422,-70"/>
</g>
<g id="clust60" class="cluster">
<title>cluster_ZonaModule_providers</title>
<polygon fill="none" stroke="#000000" points="1430,-78 1430,-130 1566,-130 1566,-78 1430,-78"/>
</g>
<!-- AuthModule -->
<g id="node1" class="node">
<title>AuthModule</title>
<polygon fill="#8dd3c7" stroke="#000000" points="504.5482,-198 501.5482,-202 480.5482,-202 477.5482,-198 417.4518,-198 417.4518,-162 504.5482,-162 504.5482,-198"/>
<text text-anchor="middle" x="461" y="-175.8" font-family="Times,serif" font-size="14.00" fill="#000000">AuthModule</text>
</g>
<!-- AppModule -->
<g id="node10" class="node">
<title>AppModule</title>
<polygon fill="#8dd3c7" stroke="#000000" points="784.6571,-263 781.6571,-267 760.6571,-267 757.6571,-263 701.3429,-263 701.3429,-227 784.6571,-227 784.6571,-263"/>
<text text-anchor="middle" x="743" y="-240.8" font-family="Times,serif" font-size="14.00" fill="#000000">AppModule</text>
</g>
<!-- AuthModule&#45;&gt;AppModule -->
<g id="edge1" class="edge">
<title>AuthModule&#45;&gt;AppModule</title>
<path fill="none" stroke="#000000" d="M461,-198.2667C461,-216.5552 461,-242 461,-242 461,-242 691.0863,-242 691.0863,-242"/>
<polygon fill="#000000" stroke="#000000" points="691.0863,-245.5001 701.0863,-242 691.0862,-238.5001 691.0863,-245.5001"/>
</g>
<!-- BillingModule -->
<g id="node2" class="node">
<title>BillingModule</title>
<polygon fill="#8dd3c7" stroke="#000000" points="621.4498,-198 618.4498,-202 597.4498,-202 594.4498,-198 522.5502,-198 522.5502,-162 621.4498,-162 621.4498,-198"/>
<text text-anchor="middle" x="572" y="-175.8" font-family="Times,serif" font-size="14.00" fill="#000000">BillingModule</text>
</g>
<!-- BillingModule&#45;&gt;AppModule -->
<g id="edge2" class="edge">
<title>BillingModule&#45;&gt;AppModule</title>
<path fill="none" stroke="#000000" d="M572,-198.0091C572,-214.0494 572,-235 572,-235 572,-235 691.1687,-235 691.1687,-235"/>
<polygon fill="#000000" stroke="#000000" points="691.1687,-238.5001 701.1687,-235 691.1687,-231.5001 691.1687,-238.5001"/>
</g>
<!-- ClientModule -->
<g id="node3" class="node">
<title>ClientModule</title>
<polygon fill="#8dd3c7" stroke="#000000" points="732.7731,-198 729.7731,-202 708.7731,-202 705.7731,-198 639.2269,-198 639.2269,-162 732.7731,-162 732.7731,-198"/>
<text text-anchor="middle" x="686" y="-175.8" font-family="Times,serif" font-size="14.00" fill="#000000">ClientModule</text>
</g>
<!-- ClientModule&#45;&gt;AppModule -->
<g id="edge3" class="edge">
<title>ClientModule&#45;&gt;AppModule</title>
<path fill="none" stroke="#000000" d="M717.0291,-198.1061C717.0291,-198.1061 717.0291,-216.991 717.0291,-216.991"/>
<polygon fill="#000000" stroke="#000000" points="713.5292,-216.9909 717.0291,-226.991 720.5292,-216.991 713.5292,-216.9909"/>
</g>
<!-- DeviceModule -->
<g id="node4" class="node">
<title>DeviceModule</title>
<polygon fill="#8dd3c7" stroke="#000000" points="849.691,-198 846.691,-202 825.691,-202 822.691,-198 750.309,-198 750.309,-162 849.691,-162 849.691,-198"/>
<text text-anchor="middle" x="800" y="-175.8" font-family="Times,serif" font-size="14.00" fill="#000000">DeviceModule</text>
</g>
<!-- DeviceModule&#45;&gt;AppModule -->
<g id="edge4" class="edge">
<title>DeviceModule&#45;&gt;AppModule</title>
<path fill="none" stroke="#000000" d="M767.6164,-198.1061C767.6164,-198.1061 767.6164,-216.991 767.6164,-216.991"/>
<polygon fill="#000000" stroke="#000000" points="764.1165,-216.9909 767.6164,-226.991 771.1165,-216.991 764.1165,-216.9909"/>
</g>
<!-- IoCtlModule -->
<g id="node5" class="node">
<title>IoCtlModule</title>
<polygon fill="#8dd3c7" stroke="#000000" points="956.3288,-198 953.3288,-202 932.3288,-202 929.3288,-198 867.6712,-198 867.6712,-162 956.3288,-162 956.3288,-198"/>
<text text-anchor="middle" x="912" y="-175.8" font-family="Times,serif" font-size="14.00" fill="#000000">IoCtlModule</text>
</g>
<!-- IoCtlModule&#45;&gt;AppModule -->
<g id="edge5" class="edge">
<title>IoCtlModule&#45;&gt;AppModule</title>
<path fill="none" stroke="#000000" d="M912,-198.0091C912,-214.0494 912,-235 912,-235 912,-235 794.7753,-235 794.7753,-235"/>
<polygon fill="#000000" stroke="#000000" points="794.7753,-231.5001 784.7753,-235 794.7753,-238.5001 794.7753,-231.5001"/>
</g>
<!-- MailModule -->
<g id="node6" class="node">
<title>MailModule</title>
<polygon fill="#8dd3c7" stroke="#000000" points="1059.9902,-198 1056.9902,-202 1035.9902,-202 1032.9902,-198 974.0098,-198 974.0098,-162 1059.9902,-162 1059.9902,-198"/>
<text text-anchor="middle" x="1017" y="-175.8" font-family="Times,serif" font-size="14.00" fill="#000000">MailModule</text>
</g>
<!-- MailModule&#45;&gt;AppModule -->
<g id="edge6" class="edge">
<title>MailModule&#45;&gt;AppModule</title>
<path fill="none" stroke="#000000" d="M1017,-198.2667C1017,-216.5552 1017,-242 1017,-242 1017,-242 794.913,-242 794.913,-242"/>
<polygon fill="#000000" stroke="#000000" points="794.913,-238.5001 784.913,-242 794.9129,-245.5001 794.913,-238.5001"/>
</g>
<!-- PanelModule -->
<g id="node7" class="node">
<title>PanelModule</title>
<polygon fill="#8dd3c7" stroke="#000000" points="1168.1529,-198 1165.1529,-202 1144.1529,-202 1141.1529,-198 1077.8471,-198 1077.8471,-162 1168.1529,-162 1168.1529,-198"/>
<text text-anchor="middle" x="1123" y="-175.8" font-family="Times,serif" font-size="14.00" fill="#000000">PanelModule</text>
</g>
<!-- PanelModule&#45;&gt;AppModule -->
<g id="edge7" class="edge">
<title>PanelModule&#45;&gt;AppModule</title>
<path fill="none" stroke="#000000" d="M1123,-198.1289C1123,-218.5724 1123,-249 1123,-249 1123,-249 794.7537,-249 794.7537,-249"/>
<polygon fill="#000000" stroke="#000000" points="794.7537,-245.5001 784.7537,-249 794.7536,-252.5001 794.7537,-245.5001"/>
</g>
<!-- UserModule -->
<g id="node8" class="node">
<title>UserModule</title>
<polygon fill="#8dd3c7" stroke="#000000" points="398.9762,-198 395.9762,-202 374.9762,-202 371.9762,-198 313.0238,-198 313.0238,-162 398.9762,-162 398.9762,-198"/>
<text text-anchor="middle" x="356" y="-175.8" font-family="Times,serif" font-size="14.00" fill="#000000">UserModule</text>
</g>
<!-- UserModule&#45;&gt;AppModule -->
<g id="edge8" class="edge">
<title>UserModule&#45;&gt;AppModule</title>
<path fill="none" stroke="#000000" d="M356,-198.1289C356,-218.5724 356,-249 356,-249 356,-249 691.2165,-249 691.2165,-249"/>
<polygon fill="#000000" stroke="#000000" points="691.2166,-252.5001 701.2165,-249 691.2165,-245.5001 691.2166,-252.5001"/>
</g>
<!-- ZonaModule -->
<g id="node9" class="node">
<title>ZonaModule</title>
<polygon fill="#8dd3c7" stroke="#000000" points="1274.3176,-198 1271.3176,-202 1250.3176,-202 1247.3176,-198 1185.6824,-198 1185.6824,-162 1274.3176,-162 1274.3176,-198"/>
<text text-anchor="middle" x="1230" y="-175.8" font-family="Times,serif" font-size="14.00" fill="#000000">ZonaModule</text>
</g>
<!-- ZonaModule&#45;&gt;AppModule -->
<g id="edge9" class="edge">
<title>ZonaModule&#45;&gt;AppModule</title>
<path fill="none" stroke="#000000" d="M1230,-198.0109C1230,-220.4852 1230,-256 1230,-256 1230,-256 794.9428,-256 794.9428,-256"/>
<polygon fill="#000000" stroke="#000000" points="794.9429,-252.5001 784.9428,-256 794.9428,-259.5001 794.9429,-252.5001"/>
</g>
<!-- ClusterService -->
<g id="node11" class="node">
<title>ClusterService</title>
<ellipse fill="#fdb462" stroke="#000000" cx="221" cy="-180" rx="67.7702" ry="18"/>
<text text-anchor="middle" x="221" y="-175.8" font-family="Times,serif" font-size="14.00" fill="#000000">ClusterService</text>
</g>
<!-- ClusterService&#45;&gt;AppModule -->
<g id="edge10" class="edge">
<title>ClusterService&#45;&gt;AppModule</title>
<path fill="none" stroke="#000000" d="M221,-198.0109C221,-220.4852 221,-256 221,-256 221,-256 691.1649,-256 691.1649,-256"/>
<polygon fill="#000000" stroke="#000000" points="691.165,-259.5001 701.1649,-256 691.1649,-252.5001 691.165,-259.5001"/>
</g>
<!-- AuthService -->
<g id="node12" class="node">
<title>AuthService</title>
<ellipse fill="#fdb462" stroke="#000000" cx="349" cy="-104" rx="59.1083" ry="18"/>
<text text-anchor="middle" x="349" y="-99.8" font-family="Times,serif" font-size="14.00" fill="#000000">AuthService</text>
</g>
<!-- AuthService&#45;&gt;AuthModule -->
<g id="edge11" class="edge">
<title>AuthService&#45;&gt;AuthModule</title>
<path fill="none" stroke="#000000" d="M403.646,-111.0137C403.646,-129.8281 403.646,-180 403.646,-180 403.646,-180 407.2381,-180 407.2381,-180"/>
<polygon fill="#000000" stroke="#000000" points="407.2381,-183.5001 417.2381,-180 407.238,-176.5001 407.2381,-183.5001"/>
</g>
<!-- JwtStrategy -->
<g id="node13" class="node">
<title>JwtStrategy</title>
<ellipse fill="#fdb462" stroke="#000000" cx="215" cy="-104" rx="56.7561" ry="18"/>
<text text-anchor="middle" x="215" y="-99.8" font-family="Times,serif" font-size="14.00" fill="#000000">JwtStrategy</text>
</g>
<!-- JwtStrategy&#45;&gt;AuthModule -->
<g id="edge12" class="edge">
<title>JwtStrategy&#45;&gt;AuthModule</title>
<path fill="none" stroke="#000000" d="M215,-122.1686C215,-126.0459 215,-129 215,-129 215,-129 437.8597,-129 437.8597,-129 437.8597,-129 437.8597,-151.8757 437.8597,-151.8757"/>
<polygon fill="#000000" stroke="#000000" points="434.3598,-151.8757 437.8597,-161.8757 441.3598,-151.8757 434.3598,-151.8757"/>
</g>
<!-- UserService -->
<g id="node14" class="node">
<title>UserService</title>
<ellipse fill="#fdb462" stroke="#000000" cx="82" cy="-104" rx="58.4415" ry="18"/>
<text text-anchor="middle" x="82" y="-99.8" font-family="Times,serif" font-size="14.00" fill="#000000">UserService</text>
</g>
<!-- UserService&#45;&gt;AuthModule -->
<g id="edge13" class="edge">
<title>UserService&#45;&gt;AuthModule</title>
<path fill="none" stroke="#000000" d="M101.4068,-121.1242C101.4068,-128.7324 101.4068,-136 101.4068,-136 101.4068,-136 427.5431,-136 427.5431,-136 427.5431,-136 427.5431,-151.8495 427.5431,-151.8495"/>
<polygon fill="#000000" stroke="#000000" points="424.0432,-151.8494 427.5431,-161.8495 431.0432,-151.8495 424.0432,-151.8494"/>
</g>
<!-- UserService&#45;&gt;UserModule -->
<g id="edge20" class="edge">
<title>UserService&#45;&gt;UserModule</title>
<path fill="none" stroke="#000000" d="M62.5932,-121.2211C62.5932,-131.2754 62.5932,-142 62.5932,-142 62.5932,-142 356,-142 356,-142 356,-142 356,-151.8903 356,-151.8903"/>
<polygon fill="#000000" stroke="#000000" points="352.5001,-151.8903 356,-161.8903 359.5001,-151.8904 352.5001,-151.8903"/>
</g>
<!-- BillingService -->
<g id="node15" class="node">
<title>BillingService</title>
<ellipse fill="#fdb462" stroke="#000000" cx="515" cy="-104" rx="66.6479" ry="18"/>
<text text-anchor="middle" x="515" y="-99.8" font-family="Times,serif" font-size="14.00" fill="#000000">BillingService</text>
</g>
<!-- BillingService&#45;&gt;BillingModule -->
<g id="edge14" class="edge">
<title>BillingService&#45;&gt;BillingModule</title>
<path fill="none" stroke="#000000" d="M552.2997,-119.0152C552.2997,-119.0152 552.2997,-151.7991 552.2997,-151.7991"/>
<polygon fill="#000000" stroke="#000000" points="548.7998,-151.7991 552.2997,-161.7991 555.7998,-151.7992 548.7998,-151.7991"/>
</g>
<!-- ClientService -->
<g id="node16" class="node">
<title>ClientService</title>
<ellipse fill="#fdb462" stroke="#000000" cx="686" cy="-104" rx="63.6967" ry="18"/>
<text text-anchor="middle" x="686" y="-99.8" font-family="Times,serif" font-size="14.00" fill="#000000">ClientService</text>
</g>
<!-- ClientService&#45;&gt;ClientModule -->
<g id="edge15" class="edge">
<title>ClientService&#45;&gt;ClientModule</title>
<path fill="none" stroke="#000000" d="M686,-122.0109C686,-122.0109 686,-151.855 686,-151.855"/>
<polygon fill="#000000" stroke="#000000" points="682.5001,-151.8549 686,-161.855 689.5001,-151.855 682.5001,-151.8549"/>
</g>
<!-- DeviceService -->
<g id="node17" class="node">
<title>DeviceService</title>
<ellipse fill="#fdb462" stroke="#000000" cx="857" cy="-104" rx="67.1715" ry="18"/>
<text text-anchor="middle" x="857" y="-99.8" font-family="Times,serif" font-size="14.00" fill="#000000">DeviceService</text>
</g>
<!-- DeviceService&#45;&gt;DeviceModule -->
<g id="edge16" class="edge">
<title>DeviceService&#45;&gt;DeviceModule</title>
<path fill="none" stroke="#000000" d="M819.6299,-119.0152C819.6299,-119.0152 819.6299,-151.7991 819.6299,-151.7991"/>
<polygon fill="#000000" stroke="#000000" points="816.13,-151.7991 819.6299,-161.7991 823.13,-151.7992 816.13,-151.7991"/>
</g>
<!-- IoctlService -->
<g id="node18" class="node">
<title>IoctlService</title>
<ellipse fill="#fdb462" stroke="#000000" cx="1022" cy="-104" rx="57.879" ry="18"/>
<text text-anchor="middle" x="1022" y="-99.8" font-family="Times,serif" font-size="14.00" fill="#000000">IoctlService</text>
</g>
<!-- IoctlService&#45;&gt;IoCtlModule -->
<g id="edge17" class="edge">
<title>IoctlService&#45;&gt;IoCtlModule</title>
<path fill="none" stroke="#000000" d="M969.1578,-111.2872C969.1578,-130.3094 969.1578,-180 969.1578,-180 969.1578,-180 966.1878,-180 966.1878,-180"/>
<polygon fill="#000000" stroke="#000000" points="966.1879,-176.5001 956.1878,-180 966.1878,-183.5001 966.1879,-176.5001"/>
</g>
<!-- MailService -->
<g id="node19" class="node">
<title>MailService</title>
<ellipse fill="#fdb462" stroke="#000000" cx="1178" cy="-104" rx="58.4609" ry="18"/>
<text text-anchor="middle" x="1178" y="-99.8" font-family="Times,serif" font-size="14.00" fill="#000000">MailService</text>
</g>
<!-- MailService&#45;&gt;MailModule -->
<g id="edge18" class="edge">
<title>MailService&#45;&gt;MailModule</title>
<path fill="none" stroke="#000000" d="M1135.9554,-116.7748C1135.9554,-130.0788 1135.9554,-149 1135.9554,-149 1135.9554,-149 1017,-149 1017,-149 1017,-149 1017,-151.9672 1017,-151.9672"/>
<polygon fill="#000000" stroke="#000000" points="1013.5001,-151.9671 1017,-161.9672 1020.5001,-151.9672 1013.5001,-151.9671"/>
</g>
<!-- PanelService -->
<g id="node20" class="node">
<title>PanelService</title>
<ellipse fill="#fdb462" stroke="#000000" cx="1337" cy="-104" rx="61.3916" ry="18"/>
<text text-anchor="middle" x="1337" y="-99.8" font-family="Times,serif" font-size="14.00" fill="#000000">PanelService</text>
</g>
<!-- PanelService&#45;&gt;PanelModule -->
<g id="edge19" class="edge">
<title>PanelService&#45;&gt;PanelModule</title>
<path fill="none" stroke="#000000" d="M1337,-122.1871C1337,-137.1824 1337,-156 1337,-156 1337,-156 1152.1407,-156 1152.1407,-156 1152.1407,-156 1152.1407,-156.581 1152.1407,-156.581"/>
<polygon fill="#000000" stroke="#000000" points="1148.6409,-151.8097 1152.1407,-161.8097 1155.6409,-151.8098 1148.6409,-151.8097"/>
</g>
<!-- ZonaService -->
<g id="node21" class="node">
<title>ZonaService</title>
<ellipse fill="#fdb462" stroke="#000000" cx="1498" cy="-104" rx="59.6704" ry="18"/>
<text text-anchor="middle" x="1498" y="-99.8" font-family="Times,serif" font-size="14.00" fill="#000000">ZonaService</text>
</g>
<!-- ZonaService&#45;&gt;ZonaModule -->
<g id="edge21" class="edge">
<title>ZonaService&#45;&gt;ZonaModule</title>
<path fill="none" stroke="#000000" d="M1498,-122.0109C1498,-144.4852 1498,-180 1498,-180 1498,-180 1284.2547,-180 1284.2547,-180"/>
<polygon fill="#000000" stroke="#000000" points="1284.2548,-176.5001 1274.2547,-180 1284.2547,-183.5001 1284.2548,-176.5001"/>
</g>
</g>
</svg>
